<svg xmlns="http://www.w3.org/2000/svg" width="38.147" height="55.487" viewBox="0 0 38.147 55.487">
  <path id="Icon_awesome-lightbulb" data-name="Icon awesome-lightbulb" d="M10.41,49.238a3.469,3.469,0,0,0,.581,1.917l1.852,2.784a3.467,3.467,0,0,0,2.887,1.548h6.688A3.467,3.467,0,0,0,25.3,53.94l1.852-2.784a3.467,3.467,0,0,0,.581-1.917l0-4.156H10.4l.005,4.156ZM0,19.073A18.967,18.967,0,0,0,4.721,31.621a31.143,31.143,0,0,1,5.658,9.911c0,.028.008.056.012.085H27.756c0-.028.008-.055.012-.085a31.143,31.143,0,0,1,5.658-9.911A19.069,19.069,0,1,0,0,19.073ZM19.073,10.4a8.68,8.68,0,0,0-8.67,8.67,1.734,1.734,0,0,1-3.468,0A12.151,12.151,0,0,1,19.073,6.936a1.734,1.734,0,0,1,0,3.468Z" transform="translate(0 0)" fill="#f0ad4e"/>
</svg>
