<?xml version="1.0" encoding="utf-8"?>
<!-- Generator: Adobe Illustrator 21.1.0, SVG Export Plug-In . SVG Version: 6.00 Build 0)  -->
<svg version="1.1" id="Capa_1" xmlns="http://www.w3.org/2000/svg" xmlns:xlink="http://www.w3.org/1999/xlink" x="0px" y="0px"
	 viewBox="0 0 1152 1245" style="enable-background:new 0 0 1152 1245;" xml:space="preserve">
<style type="text/css">
	.st0{fill:#3378B3;}
</style>
<title>Lotería Nacional</title>
<g>
	<path class="st0" d="M1080.2529,1100.3059h-137.686v-72.598h65.088V164.3981H146.8485v863.3098h60.0812v72.598H71.747V91.8
		h1008.5059V1100.3059z"/>
	<g>
		<path class="st0" d="M444.7511,516.4812c0,0-150.203,81.8964-150.203,245.868c0,139.2953,98.3472,213.1452,98.3472,213.1452
			h30.0407c0,0-54.7168-79.2142-54.7168-204.9199C368.398,628.4182,444.7511,516.4812,444.7511,516.4812z"/>
		<path class="st0" d="M472.1096,975.4944c0,0-60.0811-81.8964-60.0811-213.1453c0-161.2895,92.9828-245.868,92.9828-245.868
			h13.5897c0,0-27.3585,98.3472-27.3585,245.868s19.1329,213.1453,19.1329,213.1453H472.1096z"/>
		<path class="st0" d="M589.5898,516.4812H576h-13.5898c0,0-27.3585,112.1158-27.3585,245.868
			c0,76.532,19.1329,213.1452,19.1329,213.1452h21.8151h21.8151c0,0,19.1329-136.6133,19.1329-213.1453
			C616.9482,628.4182,589.5898,516.4812,589.5898,516.4812z"/>
		<path class="st0" d="M707.2488,516.4812c0,0,150.2031,81.8964,150.2031,245.868c0,139.2953-98.3472,213.1452-98.3472,213.1452
			H729.064c0,0,54.7168-79.2142,54.7168-204.9199C783.602,628.4182,707.2488,516.4812,707.2488,516.4812z"/>
		<path class="st0" d="M679.8904,975.4944c0,0,60.0812-81.8964,60.0812-213.1453c0-161.2895-92.9828-245.868-92.9828-245.868
			H633.399c0,0,27.3585,98.3472,27.3585,245.868s-19.1329,213.1453-19.1329,213.1453H679.8904z"/>
		<path class="st0" d="M576,469.9898L576,469.9898c-0.894,0-1.7881,0-2.6822,0s-1.7881,0-2.6822,0l0,0
			c-44.7033,0.7152-70.9887,19.133-70.9887,19.133h70.9887h5.5432h70.9887C646.9887,489.1227,620.7033,470.705,576,469.9898z"/>
		<path class="st0" d="M731.7462,1005.535H571.7084l0,0H423.1148c0,0,45.5974,33.9745,124.2751,41.3058V1101.2h60.0812v-54.3591
			C686.1488,1039.5095,731.7462,1005.535,731.7462,1005.535z"/>
	</g>
</g>
</svg>
