<?xml version="1.0" encoding="utf-8"?>
<!-- Generator: Adobe Illustrator 21.1.0, SVG Export Plug-In . SVG Version: 6.00 Build 0)  -->
<svg version="1.1" id="Capa_1" xmlns="http://www.w3.org/2000/svg" xmlns:xlink="http://www.w3.org/1999/xlink" x="0px" y="0px"
	 viewBox="0 0 2872 1289" style="enable-background:new 0 0 2872 1289;" xml:space="preserve">
<style type="text/css">
	.st0{fill:#3378b3;}
</style>
<title>Lotería Nacional</title>
<g>
	<path class="st0" d="M1720.9,675.6h-77V635h36.4V152.2h-481.4V635h33.6v40.6h-75.6v-564h564V675.6z"/>
	<g>
		<path class="st0" d="M194.5,1091.5H66.8V896h53.3v147.3h74.3v48.2H194.5z"/>
		<path class="st0" d="M418.6,994.4c0,27.7-10.6,51.5-31.7,71.5c-20.9,19.6-46.4,29.5-76.3,29.5c-29.9,0-55.4-9.8-76.3-29.5
			c-20.9-19.8-31.4-43.7-31.4-71.5c0-27.9,10.5-51.7,31.4-71.5s46.4-29.7,76.3-29.7s55.4,9.9,76.3,29.7
			C408,942.5,418.6,966.4,418.6,994.4z M257.3,994.4c0,15,5.1,27.6,15.4,37.9s22.9,15.4,37.9,15.4c14.6,0,27.1-5.2,37.6-15.7001
			c10.7-10.7,16-23.2,16-37.5999c0-14.4-5.3-26.9-16-37.6c-10.3-10.7-22.8-16-37.6-16c-14.6,0-27.1,5.3-37.6,16
			C262.5,967.3,257.3,979.8,257.3,994.4z"/>
		<path class="st0" d="M530.2,1091.5h-53.3V944.2h-52.7V896h157.6v48.2h-51.6L530.2,1091.5L530.2,1091.5z"/>
		<path class="st0" d="M745.7,1091.5H599.2V896h144.2v48h-90.9v26.9h84.7v43.8h-84.7v29.7h93.1v47.1H745.7z"/>
		<path class="st0" d="M826.2,1091.5h-53.3V896h88.9c19.4,0,36,6.5,49.6,19.6s20.5,29,20.5,47.7c0,12.3-3,23.6-9.1,33.7
			c-6.1,10.1-14.2,17.5-24.3,22.2l48.8,72.4h-61.1l-39.8-60.9h-0.6h-19.6v60.8H826.2z M826.2,944.2V988h29.7c7.1,0,12.7-2,16.8-6
			s6.2-9.7,6.2-17c0-6.2-1.8-11.2-5.3-15c-3.6-3.8-8-5.8-13.2-5.8H826.2z"/>
		<path class="st0" d="M1018,1091.5h-53.3V896h53.3V1091.5z M1004,882.5h-38.1l13.7-40.7h53.3L1004,882.5z"/>
		<path class="st0" d="M1092.9,1091.5h-56.1l79.7-195.5h48.8l79.7,195.5h-56.4l-10.1-25.5h-75.2L1092.9,1091.5z M1140.9,964.1
			l-23.6,60.6h47.1L1140.9,964.1z"/>
		<path class="st0" d="M1403.4,1091.5h-51.1V896h47.7l81.9,104.9V896h51.1v195.5h-43.5l-86.1-109.1V1091.5z"/>
		<path class="st0" d="M1606.8,1091.5h-56.1l79.7-195.5h48.8l79.7,195.5h-56.4l-10.1-25.5h-75.2L1606.8,1091.5z M1654.7,964.1
			l-23.6,60.6h47.1L1654.7,964.1z"/>
		<path class="st0" d="M1862.9,893.2c15.7,0,30.6,3.4,44.6,10.1c14,6.7,26.2,16.1,36.5,28.1l-36.2,30.3
			c-12.3-13.8-27.3-20.8-44.9-20.8c-15,0-27.6,5-37.9,15.1s-15.4,22.7-15.4,37.9c0,15.1,5.1,27.8,15.4,37.9001
			c10.5,9.8999,23.1,14.8999,37.9,14.8999c17.6,0,32.5-6.9,44.9-20.8l36.2,30.3c-10.3,12-22.4,21.3-36.5,28s-28.9,10.1-44.6,10.1
			c-29.7,0-55-9.5-75.7-28.6c-20.6-19.1-30.9-43-30.9-71.8s10.3-52.7,30.9-71.8C1807.7,902.8,1833,893.2,1862.9,893.2z"/>
		<path class="st0" d="M2018,1091.5h-53.3V896h53.3V1091.5z"/>
		<path class="st0" d="M2259.2,994.4c0,27.7-10.6001,51.5-31.7,71.5c-20.8999,19.6-46.3999,29.5-76.3,29.5
			c-29.8999,0-55.3999-9.8-76.3-29.5c-20.8999-19.8-31.4-43.7-31.4-71.5c0-27.9,10.5001-51.7,31.4-71.5s46.3999-29.7,76.3-29.7
			c29.8999,0,55.3999,9.9,76.3,29.7C2248.7,942.5,2259.2,966.4,2259.2,994.4z M2097.8999,994.4c0,15,5.1001,27.6,15.3999,37.9
			c10.3,10.3,22.8999,15.4,37.8999,15.4c14.6001,0,27.1001-5.2,37.6001-15.7001c10.7-10.7,16-23.2,16-37.5999
			c0-14.4-5.3-26.9-16-37.6c-10.3-10.7-22.8-16-37.6001-16c-14.6001,0-27.1001,5.3-37.6001,16
			C2103.2,967.3,2097.8999,979.8,2097.8999,994.4z"/>
		<path class="st0" d="M2334.7,1091.5h-51.1001V896h47.7l81.8999,104.9V896h51.1001v195.5h-43.5l-86.1001-109.1v109.1H2334.7z"/>
		<path class="st0" d="M2538,1091.5h-56.1001l79.7-195.5h48.8l79.7,195.5H2633.7l-10.1001-25.5h-75.2L2538,1091.5z M2586,964.1
			l-23.6001,60.6H2609.5L2586,964.1z"/>
		<path class="st0" d="M2835.3999,1091.5h-127.6001V896h53.3v147.3h74.3V1091.5z"/>
	</g>
	<g>
		<path class="st0" d="M1365.5,349.1c0,0-84,45.8-84,137.5c0,77.9,55,119.2,55,119.2h16.8c0,0-30.6-44.3-30.6-114.6
			C1322.8,411.7,1365.5,349.1,1365.5,349.1z"/>
		<path class="st0" d="M1380.8,605.8c0,0-33.6-45.8-33.6-119.2c0-90.2,52-137.5,52-137.5h7.6c0,0-15.3,55-15.3,137.5
			s10.7,119.2,10.7,119.2H1380.8z"/>
		<path class="st0" d="M1446.5,349.1h-7.6h-7.6c0,0-15.3,62.7-15.3,137.5c0,42.8,10.7,119.2,10.7,119.2h12.2h12.2
			c0,0,10.7-76.4,10.7-119.2C1461.8,411.7,1446.5,349.1,1446.5,349.1z"/>
		<path class="st0" d="M1512.3,349.1c0,0,84,45.8,84,137.5c0,77.9-55,119.2-55,119.2h-16.8c0,0,30.6-44.3,30.6-114.6
			C1555,411.7,1512.3,349.1,1512.3,349.1z"/>
		<path class="st0" d="M1497,605.8c0,0,33.6-45.8,33.6-119.2c0-90.2-52-137.5-52-137.5h-7.6c0,0,15.3,55,15.3,137.5
			s-10.7,119.2-10.7,119.2H1497z"/>
		<path class="st0" d="M1438.9,323.1L1438.9,323.1c-0.5,0-1,0-1.5,0s-1,0-1.5,0l0,0c-25,0.4-39.7,10.7-39.7,10.7h39.7h3.1h39.7
			C1478.6,333.8,1463.9,323.5,1438.9,323.1z"/>
		<path class="st0" d="M1526,622.6h-83.1h-6.4h-83.1c0,0,25.5,19,69.5,23.1v30.4h33.6v-30.4C1500.5,641.6,1526,622.6,1526,622.6z"/>
	</g>
</g>
</svg>
